<svg width="218" height="52" viewBox="0 0 218 52" fill="none" xmlns="http://www.w3.org/2000/svg">
<g clip-path="url(#clip0_608_16552)">
<path d="M87.6363 39.4356L83.1363 32.9242H77.2727V39.4356H73.1818V17.1499H82.2727C84.1818 17.1499 85.8636 17.4709 87.2727 18.1129C88.6818 18.7548 89.7727 19.6719 90.5454 20.8642C91.3181 22.0564 91.6818 23.4779 91.6818 25.0829C91.6818 26.6878 91.2727 28.201 90.4545 29.4391C89.6363 30.6314 88.4999 31.5485 86.9545 32.1446L92.0454 39.4815H87.6363V39.4356ZM86.1363 21.7813C85.2272 21.0018 83.8636 20.6349 82.0454 20.6349H77.2272V29.5309H82.0454C83.8181 29.5309 85.1818 29.164 86.1363 28.3845C87.0909 27.6049 87.5454 26.5044 87.5454 25.0829C87.5454 23.6614 87.0909 22.5608 86.1363 21.7813Z" fill="#0A233C"/>
<path d="M111.273 35.9506V39.4356H94.6818V17.1499H110.818V20.6349H98.7727V26.4127H109.454V29.806H98.7727V35.9506H111.273Z" fill="#0A233C"/>
<path d="M128.591 34.2994H117.545L115.364 39.481H111.136L121.091 17.1953H125.136L135.136 39.481H130.818L128.591 34.2994ZM127.227 31.0436L123.045 21.2764L118.909 31.0436H127.227Z" fill="#0A233C"/>
<path d="M149.636 18.1129C151.045 18.7548 152.136 19.6719 152.909 20.8642C153.682 22.0564 154.045 23.4779 154.045 25.0829C154.045 26.6878 153.682 28.1093 152.909 29.3016C152.136 30.4938 151.045 31.4109 149.636 32.0529C148.227 32.6949 146.545 33.0159 144.636 33.0159H139.636V39.4356H135.545V17.1499H144.636C146.545 17.1499 148.227 17.4709 149.636 18.1129ZM148.5 28.3386C149.409 27.5591 149.909 26.4585 149.909 25.037C149.909 23.6155 149.455 22.515 148.5 21.7354C147.591 20.9559 146.227 20.5891 144.409 20.5891H139.591V29.4391H144.409C146.182 29.4391 147.545 29.0723 148.5 28.2928V28.3386Z" fill="#0A233C"/>
<path d="M171.409 19.1217C173 20.4515 173.773 22.2857 173.773 24.6702C173.773 27.0547 173 28.843 171.409 30.1728C169.818 31.5026 167.636 32.1446 164.864 32.1446H158.545V39.4356H156.954V17.1499H164.864C167.636 17.1499 169.818 17.7919 171.409 19.1217ZM170.273 29.1182C171.5 28.0635 172.136 26.5961 172.136 24.6702C172.136 22.7443 171.5 21.231 170.273 20.1764C169.045 19.1217 167.227 18.6173 164.864 18.6173H158.545V30.6772H164.864C167.227 30.6772 169 30.1728 170.273 29.1182Z" fill="#0A233C"/>
<path d="M192.136 39.4356L186.864 31.9611C186.091 32.0529 185.364 32.0987 184.727 32.0987H178.409V39.3897H176.818V17.104H184.727C187.5 17.104 189.682 17.746 191.273 19.0758C192.864 20.4056 193.636 22.2398 193.636 24.6243C193.636 27.0088 193.182 27.88 192.273 29.0723C191.364 30.2645 190.091 31.1358 188.454 31.5943L194 39.3897H192.136V39.4356ZM184.727 30.7231C187.091 30.7231 188.864 30.2186 190.136 29.164C191.364 28.1093 192 26.6419 192 24.6701C192 22.6984 191.364 21.231 190.136 20.1763C188.909 19.1216 187.091 18.6172 184.727 18.6172H178.409V30.7231H184.727Z" fill="#0A233C"/>
<path d="M200.636 38.1056C198.909 37.0968 197.5 35.767 196.5 34.0245C195.5 32.282 195 30.4019 195 28.2467C195 26.0915 195.5 24.2114 196.5 22.4689C197.5 20.7264 198.864 19.3966 200.636 18.3878C202.364 17.379 204.364 16.9204 206.5 16.9204C208.636 16.9204 210.636 17.4248 212.364 18.3878C214.091 19.3507 215.5 20.7264 216.5 22.4231C217.5 24.1656 218 26.0915 218 28.2008C218 30.3102 217.5 32.282 216.5 33.9786C215.5 35.7211 214.136 37.0509 212.364 38.0139C210.636 38.9768 208.636 39.4813 206.5 39.4813C204.364 39.4813 202.364 38.9768 200.636 38.0139V38.1056ZM211.545 36.8216C213.045 35.9504 214.227 34.804 215.091 33.2908C215.955 31.7776 216.364 30.1268 216.364 28.2925C216.364 26.4583 215.955 24.7617 215.091 23.2943C214.227 21.8269 213.045 20.6347 211.545 19.7634C210.045 18.8922 208.364 18.4795 206.5 18.4795C204.636 18.4795 202.955 18.8922 201.455 19.7634C199.955 20.6347 198.773 21.7811 197.909 23.2943C197.045 24.8075 196.636 26.4583 196.636 28.2925C196.636 30.1268 197.045 31.8234 197.909 33.2908C198.773 34.804 199.955 35.9504 201.455 36.8216C202.955 37.6929 204.636 38.1056 206.5 38.1056C208.364 38.1056 210.045 37.6929 211.545 36.8216Z" fill="#0A233C"/>
<path d="M1.72727 35.7215L0 52.0001L24.9091 38.8396L48.5909 50.9913L63.2727 43.2417L24.8182 23.5239L1.72727 35.7215Z" fill="url(#paint0_linear_608_16552)"/>
<path d="M41.1363 22.3316L55.8181 14.582L27.3636 0L4.27268 12.1975L2.54541 28.4762L27.4545 15.3157L41.1363 22.3316Z" fill="url(#paint1_linear_608_16552)"/>
</g>
<defs>
<linearGradient id="paint0_linear_608_16552" x1="31.6364" y1="23.5239" x2="31.6364" y2="52.0001" gradientUnits="userSpaceOnUse">
<stop stop-color="#E8CC9A"/>
<stop offset="0.5" stop-color="#CFB383"/>
<stop offset="1" stop-color="#B79B6B"/>
</linearGradient>
<linearGradient id="paint1_linear_608_16552" x1="29.1818" y1="0" x2="29.1818" y2="28.4762" gradientUnits="userSpaceOnUse">
<stop stop-color="#E8CC9A"/>
<stop offset="0.5" stop-color="#CFB383"/>
<stop offset="1" stop-color="#B79B6B"/>
</linearGradient>
<clipPath id="clip0_608_16552">
<rect width="218" height="52" fill="white"/>
</clipPath>
</defs>
</svg>
